<svg xmlns="http://www.w3.org/2000/svg" width="1200" height="675" viewBox="0 0 1200 675" role="img" aria-labelledby="pomiar-ryby-title pomiar-ryby-desc">
<title id="pomiar-ryby-title">Pomiar ryby — miarka</title><desc id="pomiar-ryby-desc">Schemat ryby ułożonej przy początku miarki.</desc>
<defs><pattern id="grain" width="18" height="18" patternUnits="userSpaceOnUse"><circle cx="3" cy="4" r="1" fill="#0b514b" opacity=".08"/><circle cx="13" cy="11" r=".8" fill="#0b514b" opacity=".06"/></pattern><marker id="arrow" viewBox="0 0 10 10" refX="8" refY="5" markerWidth="8" markerHeight="8" orient="auto-start-reverse"><path d="M0 0L10 5 0 10z" fill="#e98b3a"/></marker><style>.label{font-family:Arial,sans-serif;font-size:22px;font-weight:700;letter-spacing:.7px;fill:#123b38}.fine{fill:none;stroke:#0b514b;stroke-width:6;stroke-linecap:round;stroke-linejoin:round}.guide{fill:none;stroke:#e98b3a;stroke-width:5;stroke-linecap:round;stroke-dasharray:10 12}</style></defs>
<rect width="1200" height="675" fill="#fffaf0"/><rect width="1200" height="675" fill="url(#grain)"/><path d="M0 70H1200" stroke="#0b514b" stroke-width="14"/><path d="M60 104H258" stroke="#e98b3a" stroke-width="10"/>
<rect x="100" y="490" width="1000" height="88" rx="12" fill="#f2d49a" stroke="#0b514b" stroke-width="8"/><path d="M150 490v55m100-55v33m100-55v55m100-55v33m100-55v55m100-55v33m100-55v55m100-55v33m100-55v55" stroke="#0b514b" stroke-width="7"/><path d="M170 370c128-130 449-141 669-13l135-73-37 103 37 104-136-75c-209 109-532 99-668-46z" fill="#57c8c0" stroke="#0b514b" stroke-width="9"/><path d="M150 230V440" class="guide" marker-end="url(#arrow)"/><path d="M890 220v175" class="guide" marker-end="url(#arrow)"/><text x="150" y="200" text-anchor="middle" class="label">ZERO</text><text x="890" y="195" text-anchor="middle" class="label">KONIEC OGONA</text><text x="600" y="650" text-anchor="middle" class="label">DŁUGOŚĆ</text>
<path d="M0 660H1200" stroke="#0b514b" stroke-width="30"/></svg>