<svg xmlns="http://www.w3.org/2000/svg" width="1200" height="675" viewBox="0 0 1200 675" role="img" aria-labelledby="dobor-sprzetu-title dobor-sprzetu-desc">
<title id="dobor-sprzetu-title">Dobór sprzętu — trzy pytania</title><desc id="dobor-sprzetu-desc">Schemat łączenia warunków wody, przynęty i wędziska.</desc>
<defs><pattern id="grain" width="18" height="18" patternUnits="userSpaceOnUse"><circle cx="3" cy="4" r="1" fill="#0b514b" opacity=".08"/><circle cx="13" cy="11" r=".8" fill="#0b514b" opacity=".06"/></pattern><marker id="arrow" viewBox="0 0 10 10" refX="8" refY="5" markerWidth="8" markerHeight="8" orient="auto-start-reverse"><path d="M0 0L10 5 0 10z" fill="#e98b3a"/></marker><style>.label{font-family:Arial,sans-serif;font-size:22px;font-weight:700;letter-spacing:.7px;fill:#123b38}.fine{fill:none;stroke:#0b514b;stroke-width:6;stroke-linecap:round;stroke-linejoin:round}.guide{fill:none;stroke:#e98b3a;stroke-width:5;stroke-linecap:round;stroke-dasharray:10 12}</style></defs>
<rect width="1200" height="675" fill="#fffaf0"/><rect width="1200" height="675" fill="url(#grain)"/><path d="M0 70H1200" stroke="#0b514b" stroke-width="14"/><path d="M60 104H258" stroke="#e98b3a" stroke-width="10"/>
<circle cx="315" cy="350" r="118" fill="#d8eee8" stroke="#0b514b" stroke-width="9"/><path d="M220 365q95-70 190 0" fill="none" stroke="#167f88" stroke-width="14"/><circle cx="600" cy="350" r="118" fill="#f2d49a" stroke="#0b514b" stroke-width="9"/><path d="M560 355l40-50 40 50-40 50z" fill="#e98b3a" stroke="#0b514b" stroke-width="7"/><circle cx="885" cy="350" r="118" fill="#57c8c0" stroke="#0b514b" stroke-width="9"/><path d="M818 400l122-105" class="fine"/><path d="M435 350h45m240 0h45" class="guide" marker-end="url(#arrow)"/><text x="315" y="525" text-anchor="middle" class="label">WODA</text><text x="600" y="525" text-anchor="middle" class="label">PRZYNĘTA</text><text x="885" y="525" text-anchor="middle" class="label">WĘDZISKO</text>
<path d="M0 660H1200" stroke="#0b514b" stroke-width="30"/></svg>