<svg xmlns="http://www.w3.org/2000/svg" width="512" height="512" viewBox="0 0 512 512" role="img" aria-label="FishPoint">
  <defs>
    <linearGradient id="bg" x1="0" y1="0" x2="1" y2="1">
      <stop offset="0" stop-color="#0e5e54"/>
      <stop offset="1" stop-color="#0a463f"/>
    </linearGradient>
  </defs>
  <rect width="512" height="512" rx="112" fill="url(#bg)"/>
  <!-- ryba -->
  <g fill="none" stroke="#ffffff" stroke-width="20" stroke-linecap="round" stroke-linejoin="round">
    <path d="M150 256c40-58 120-92 190-92 34 0 62 12 62 12s-22 34-22 80 22 80 22 80-28 12-62 12c-70 0-150-34-190-92z"/>
    <path d="M150 256c-24-14-44-14-72-6 14 18 14 46 0 64 28 8 48 8 72-6"/>
    <circle cx="336" cy="230" r="12" fill="#ffffff" stroke="none"/>
  </g>
  <!-- fala ≈ -->
  <g fill="none" stroke="#5fd0bf" stroke-width="16" stroke-linecap="round">
    <path d="M132 392c26-26 52-26 78 0s52 26 78 0 52-26 78 0"/>
  </g>
</svg>
